<svg id="efp41il7ibas1" xmlns="http://www.w3.org/2000/svg" xmlns:xlink="http://www.w3.org/1999/xlink" viewBox="0 0 87 87" shape-rendering="geometricPrecision" text-rendering="geometricPrecision"><defs><clipPath id="efp41il7ibas2"><rect id="efp41il7ibas3" width="87" height="87" rx="0" ry="0" fill="rgb(255,255,255)" stroke="none" stroke-width="1"/></clipPath></defs><g id="efp41il7ibas4"><g id="efp41il7ibas5" clip-path="url(#efp41il7ibas2)"><g id="efp41il7ibas6"><g id="efp41il7ibas7"><path id="efp41il7ibas8" d="M43.476900,-0.000996C64.558600,-0.000996,81.674300,17.055300,81.674300,38.062000C81.674300,59.068800,64.558600,76.123600,43.476900,76.123600C22.395200,76.123600,5.279530,59.068800,5.279530,38.062000C5.279530,17.055300,22.395200,-0.000996,43.476900,-0.000996ZM43.476900,11.165300C58.374700,11.165300,70.468300,23.216600,70.468300,38.062000C70.468300,52.906000,58.374700,64.957200,43.476900,64.957200C28.579100,64.957200,16.483900,52.906000,16.483900,38.062000C16.483900,23.216600,28.579100,11.165300,43.476900,11.165300Z" clip-rule="evenodd" fill="rgb(40,99,99)" fill-rule="evenodd" stroke="none" stroke-width="1"/></g><g id="efp41il7ibas9"><path id="efp41il7ibas10" d="M76.544000,57.096400C55.627200,70.244700,33.839300,69.848100,11.278000,57.430600C9.014900,53.103500,13.192900,69.989800,43.405400,86.944800C48.331800,84.713600,54.774400,80.914200,61.254400,75.395500C67.565300,70.019400,72.168600,63.910600,76.544000,57.096400Z" clip-rule="evenodd" fill="rgb(40,99,99)" fill-rule="evenodd" stroke="none" stroke-width="1"/></g></g><g id="efp41il7ibas11"><g id="efp41il7ibas12"><path id="efp41il7ibas13" d="M50.042800,41.313300L35.882700,57.177600C35.882700,57.177600,30.276300,59.498000,31.579300,52.800700L47.174400,38.374400L50.042800,41.313300Z" clip-rule="evenodd" fill="rgb(40,99,99)" fill-rule="evenodd" stroke="none" stroke-width="1"/></g><g id="efp41il7ibas14"><path id="efp41il7ibas15" d="M49.830300,33.783600C52.307200,31.375700,54.739800,28.872000,57.132000,26.376400C57.132000,26.376400,58.368400,22.707000,54.325300,23.688400L46.811800,31.239700C46.732100,31.200400,42.700000,35.962900,46.464800,39.430700C50.087400,42.767600,49.335100,42.038200,49.335100,42.038200C49.335100,42.038200,52.096400,45.756900,57.402300,41.860800L64.728200,34.113100C64.728200,34.113100,65.949500,30.203900,62.057600,31.504600L55.056500,38.514900C55.056500,38.514900,53.509400,39.376300,53.203800,38.400000L61.139900,30.063900C61.110600,30.068900,62.412600,26.449900,58.535900,27.440300L51.039500,34.911000C51.039500,34.911000,49.485400,37.009700,49.830300,33.783600Z" clip-rule="evenodd" fill="rgb(40,99,99)" fill-rule="evenodd" stroke="none" stroke-width="1"/></g></g><g id="efp41il7ibas16"><path id="efp41il7ibas17" d="M36.999400,27.645300C41.176900,32.244000,42.047600,38.257300,38.944200,41.076600C35.840700,43.895800,29.938300,42.453300,25.760800,37.854600C21.583300,33.256000,20.712600,27.242600,23.816100,24.423400C26.919500,21.604100,32.821900,23.046600,36.999400,27.645300Z" fill="rgb(40,99,99)" stroke="rgb(255,255,255)" stroke-width="0.001167"/><path id="efp41il7ibas18" d="M36.889800,41.664700L39.798500,38.767200L55.806200,52.763900L55.806200,52.763900L55.806200,52.764100L55.806600,52.764800L55.807800,52.767800L55.812700,52.779800C55.817000,52.790300,55.823300,52.805900,55.831200,52.826200C55.847000,52.866800,55.869200,52.926100,55.895200,53.001200C55.947100,53.151400,56.013700,53.364700,56.072700,53.616700C56.190800,54.120700,56.278300,54.779800,56.156100,55.400400C56.033900,56.020900,55.702100,56.602800,54.981600,56.952400C54.261000,57.302100,53.151600,57.419600,51.474200,57.111000L36.889800,41.664700Z" fill="rgb(40,99,99)" stroke="rgb(255,255,255)" stroke-width="0.001167"/></g></g></g></svg>