<?xml version="1.0" encoding="UTF-8" standalone="no"?><!DOCTYPE svg PUBLIC "-//W3C//DTD SVG 1.1//EN" "http://www.w3.org/Graphics/SVG/1.1/DTD/svg11.dtd"><svg width="100%" height="100%" viewBox="0 0 2134 2134" version="1.1" xmlns="http://www.w3.org/2000/svg" xmlns:xlink="http://www.w3.org/1999/xlink" xml:space="preserve" xmlns:serif="http://www.serif.com/" style="fill-rule:evenodd;clip-rule:evenodd;stroke-linejoin:round;stroke-miterlimit:2;"><path d="M1882.54,998.092l0,906.891l-285.009,-52.754l-125.65,-150.725l-529.416,-588.558l449.483,-319.371c225.154,297.192 232.254,224.742 232.254,224.742c0,0 111.217,-166.042 253.9,-23.363l4.438,3.138Z" style="fill:#8c8c8c;fill-rule:nonzero;"/><path d="M794.613,929.604l934.629,1202.9c-5.442,0.534 -10.942,0.829 -16.5,0.829l-1528.01,0l609.879,-1203.73Z" style="fill:#6c6c6c;fill-rule:nonzero;"/><path d="M1391.95,793.575l-1390.09,1169.96l0,-1541.08c0,-93.8 76.059,-169.8 169.8,-169.8l1013.71,0c-43.53,74.817 117.87,122.838 117.87,215.633c0,93.392 44.655,250.117 88.713,325.288Z" style="fill:#707070;fill-rule:nonzero;"/><path d="M1882.54,1904.98l0,58.55c0,88.184 -67.246,160.692 -153.296,168.971l-782.104,-771.808l189.316,-191.858l436.946,431.15l24.129,23.833l285.009,281.162Z" style="fill:#acacac;fill-rule:nonzero;"/><path d="M1343.81,958.7l-207.354,210.133l-189.316,191.859l-762.405,772.641l-13.07,0c-93.742,0 -169.8,-76.058 -169.8,-169.8l1184.39,-1200.24c22.179,37.97 174.709,-0.475 205.7,30.279l56.959,73.216c27.795,29.638 -128.996,60.45 -105.105,91.913Z" style="fill:#a5a5a5;fill-rule:nonzero;"/><path d="M445.433,949.063c-149.2,0 -270.579,-121.38 -270.579,-270.58c0,-149.2 121.379,-270.579 270.579,-270.579c72.225,0 140.154,28.159 191.292,79.292l-62.737,62.725c-34.367,-34.375 -80.026,-53.304 -128.555,-53.304c-100.283,0 -181.862,81.583 -181.862,181.862c0,100.279 81.583,181.863 181.862,181.863c84.984,0 156.546,-58.592 176.392,-137.509l-176.392,0l0,-88.712l270.58,0l0,44.358c-0.005,149.204 -121.38,270.584 -270.58,270.584Z" style="fill:#acacac;fill-rule:nonzero;"/><path d="M1185.37,252.658c87.825,-151.05 251.475,-252.658 438.837,-252.658c280.159,0 507.267,227.108 507.267,507.267c0,70.262 -14.313,137.15 -40.1,198.008c-25.846,60.858 -63.225,115.625 -109.354,161.517c-38.442,40.866 -72.921,84.041 -103.913,128.162c-203.037,289.267 -253.9,619.521 -253.9,619.521c0,0 -55.237,-358.583 -280.396,-655.775c-23.891,-31.462 -49.679,-62.279 -77.475,-91.908l0.059,0c-30.992,-30.754 -57.959,-65.529 -80.138,-103.5c-44.062,-75.171 -69.317,-162.642 -69.317,-256.029c0,-92.792 24.9,-179.792 68.43,-254.605Z" style="fill:#656565;fill-rule:nonzero;"/><path d="M1624.21,237.279c149.088,0 269.921,120.904 269.921,269.992c0,149.087 -120.833,269.921 -269.921,269.921c-149.087,0 -269.991,-120.834 -269.991,-269.921c0,-149.088 120.908,-269.992 269.991,-269.992Z" style="fill:#515151;fill-rule:nonzero;"/></svg>