<?xml version="1.0" encoding="UTF-8" standalone="no"?>
<!DOCTYPE svg PUBLIC "-//W3C//DTD SVG 1.1//EN" "http://www.w3.org/Graphics/SVG/1.1/DTD/svg11.dtd">
<svg width="100%" height="100%" viewBox="0 0 2550 3300" version="1.1" xmlns="http://www.w3.org/2000/svg" xmlns:xlink="http://www.w3.org/1999/xlink" xml:space="preserve" xmlns:serif="http://www.serif.com/" style="fill-rule:evenodd;clip-rule:evenodd;stroke-linecap:round;stroke-linejoin:round;stroke-miterlimit:1.5;">
    <path d="M1036.7,1762.12C1034.41,1747.94 1033.77,1732.71 1034.97,1716.4C1042.79,1610.26 1132.91,1523.71 1253.54,1523.71C1374.16,1523.71 1466.99,1610.14 1472.1,1716.4C1472.68,1728.51 1472.26,1740.11 1470.91,1751.17L1470.94,1751.17C1465.92,1859.39 1292.82,2060.18 1253.01,2173.05C1223.17,2081.53 1045.72,1853.37 1036.7,1762.12ZM1253.95,1649.08C1299.4,1649.08 1336.3,1685.98 1336.3,1731.43C1336.3,1776.88 1299.4,1813.78 1253.95,1813.78C1208.5,1813.78 1171.6,1776.88 1171.6,1731.43C1171.6,1685.98 1208.5,1649.08 1253.95,1649.08Z" style="fill:none;stroke:rgb(235,235,235);stroke-width:14.58px;"/>
    <path d="M1036.7,1762.12C1034.41,1747.94 1033.77,1732.71 1034.97,1716.4C1042.79,1610.26 1132.91,1523.71 1253.54,1523.71C1374.16,1523.71 1466.99,1610.14 1472.1,1716.4C1472.68,1728.51 1472.26,1740.11 1470.91,1751.17L1470.94,1751.17C1465.92,1859.39 1292.82,2060.18 1253.01,2173.05C1223.17,2081.53 1045.72,1853.37 1036.7,1762.12ZM1253.95,1649.08C1299.4,1649.08 1336.3,1685.98 1336.3,1731.43C1336.3,1776.88 1299.4,1813.78 1253.95,1813.78C1208.5,1813.78 1171.6,1776.88 1171.6,1731.43C1171.6,1685.98 1208.5,1649.08 1253.95,1649.08Z" style="fill:rgb(40,99,99);"/>
</svg>
