<?xml version="1.0" encoding="UTF-8" standalone="no"?>
<!DOCTYPE svg PUBLIC "-//W3C//DTD SVG 1.1//EN" "http://www.w3.org/Graphics/SVG/1.1/DTD/svg11.dtd">
<svg width="100%" height="100%" viewBox="0 0 753 857" version="1.1" xmlns="http://www.w3.org/2000/svg" xmlns:xlink="http://www.w3.org/1999/xlink" xml:space="preserve" xmlns:serif="http://www.serif.com/" style="fill-rule:evenodd;clip-rule:evenodd;stroke-linejoin:round;stroke-miterlimit:2;">
    <g transform="matrix(1,0,0,1,-927.82,-843.408)">
        <g transform="matrix(1.39275,0,0,1.39275,-510.083,-489.101)">
            <g transform="matrix(1.07147,0,0,1.07174,-130.359,-175.832)">
                <path d="M1337.36,1056.76C1476.52,1056.76 1589.5,1169.32 1589.5,1307.95C1589.5,1446.58 1476.52,1559.13 1337.36,1559.13C1198.2,1559.13 1085.22,1446.58 1085.22,1307.95C1085.22,1169.32 1198.2,1056.76 1337.36,1056.76ZM1337.36,1130.45C1435.7,1130.45 1515.53,1209.98 1515.53,1307.95C1515.53,1405.91 1435.7,1485.44 1337.36,1485.44C1239.02,1485.44 1159.18,1405.91 1159.18,1307.95C1159.18,1209.98 1239.02,1130.45 1337.36,1130.45Z" style="fill:rgb(225,243,245);"/>
            </g>
        </g>
        <g transform="matrix(0.99769,0,0,1.04164,3.01689,-64.6412)">
            <path d="M1630.57,1411.7C1424.05,1536.04 1208.93,1532.29 986.173,1414.86C963.829,1373.94 1005.08,1533.63 1303.38,1693.97C1352.02,1672.87 1415.63,1636.94 1479.61,1584.75C1541.92,1533.91 1587.37,1476.14 1630.57,1411.7Z" style="fill:rgb(225,243,245);"/>
        </g>
        <g transform="matrix(-0.0102213,0.999948,-0.999948,-0.0102213,2606.94,-4.8913)">
            <clipPath id="_clip1">
                <path d="M1362.99,1213.57L1323.96,1178.21L1197.2,1318.14L1236.23,1353.5L1362.99,1213.57Z"/>
            </clipPath>
            <g clip-path="url(#_clip1)">
                <path d="M1267.85,1225.28L1425.54,1363.16C1425.54,1363.16 1448.96,1418.15 1382.86,1405.99L1239.19,1253.83L1267.85,1225.28Z" style="fill:rgb(225,243,245);"/>
            </g>
        </g>
        <g transform="matrix(-0.0102213,0.999948,-0.999948,-0.0102213,2606.94,-4.8913)">
            <clipPath id="_clip2">
                <path d="M1497.78,1339.51L1402.07,1244.78L1262.43,1385.88L1358.15,1480.6L1497.78,1339.51Z"/>
            </clipPath>
            <g clip-path="url(#_clip2)">
                <path d="M1267.85,1225.28L1425.54,1363.16C1425.54,1363.16 1448.96,1418.15 1382.86,1405.99L1239.19,1253.83L1267.85,1225.28Z" style="fill:rgb(225,243,245);"/>
            </g>
        </g>
        <g transform="matrix(0.993454,0,0,0.992457,8.53769,9.02617)">
            <path d="M1367.09,1176.04C1391.65,1152.14 1415.77,1127.29 1439.49,1102.52C1439.49,1102.52 1451.75,1066.1 1411.66,1075.84L1337.16,1150.79C1336.37,1150.4 1296.39,1197.67 1333.72,1232.09C1369.64,1265.21 1362.18,1257.97 1362.18,1257.97C1362.18,1257.97 1389.56,1294.88 1442.17,1256.21L1514.81,1179.31C1514.81,1179.31 1526.92,1140.51 1488.33,1153.42L1418.91,1223C1418.91,1223 1403.57,1231.55 1400.54,1221.86L1479.23,1139.12C1478.94,1139.17 1491.85,1103.25 1453.41,1113.08L1379.08,1187.23C1379.08,1187.23 1363.67,1208.06 1367.09,1176.04Z" style="fill:rgb(225,243,245);"/>
        </g>
        <path d="M1267.85,1225.28L1425.54,1363.16C1425.54,1363.16 1448.96,1418.15 1382.86,1405.99L1239.19,1253.83L1267.85,1225.28Z" style="fill:rgb(225,243,245);"/>
        <g transform="matrix(0.396279,-0.359988,0.509328,0.560675,45.5331,923.683)">
            <ellipse cx="1270.92" cy="1248.22" rx="139.688" ry="146.297" style="fill:rgb(225,243,245);"/>
        </g>
    </g>
</svg>
