<?xml version="1.0" encoding="UTF-8" standalone="no"?><!DOCTYPE svg PUBLIC "-//W3C//DTD SVG 1.1//EN" "http://www.w3.org/Graphics/SVG/1.1/DTD/svg11.dtd"><svg width="100%" height="100%" viewBox="0 0 2125 2125" version="1.1" xmlns="http://www.w3.org/2000/svg" xmlns:xlink="http://www.w3.org/1999/xlink" xml:space="preserve" xmlns:serif="http://www.serif.com/" style="fill-rule:evenodd;clip-rule:evenodd;stroke-linejoin:round;stroke-miterlimit:2;"><path id="info-outline" d="M956.25,1593.75l212.5,0l0,-637.5l-212.5,0l0,637.5Zm106.25,-1593.75c-584.375,0 -1062.5,478.125 -1062.5,1062.5c0,584.375 478.125,1062.5 1062.5,1062.5c584.375,0 1062.5,-478.125 1062.5,-1062.5c0,-584.375 -478.125,-1062.5 -1062.5,-1062.5Zm0,1912.5c-467.5,0 -850,-382.5 -850,-850c0,-467.5 382.5,-850 850,-850c467.5,0 850,382.5 850,850c0,467.5 -382.5,850 -850,850Zm-106.25,-1168.75l212.5,0l0,-212.5l-212.5,0l0,212.5Z" style="fill:#8c8c8c;fill-rule:nonzero;"/></svg>